<?xml version="1.0" encoding="UTF-8" standalone="no"?>
<!-- Created with Inkscape (http://www.inkscape.org/) -->

<svg
   xmlns:dc="http://purl.org/dc/elements/1.1/"
   xmlns:cc="http://creativecommons.org/ns#"
   xmlns:rdf="http://www.w3.org/1999/02/22-rdf-syntax-ns#"
   xmlns:svg="http://www.w3.org/2000/svg"
   xmlns="http://www.w3.org/2000/svg"
   xmlns:sodipodi="http://sodipodi.sourceforge.net/DTD/sodipodi-0.dtd"
   xmlns:inkscape="http://www.inkscape.org/namespaces/inkscape"
   width="16.354425mm"
   height="13.182995mm"
   viewBox="0 0 16.354426 13.182995"
   version="1.1"
   id="svg8"
   inkscape:version="0.92.2 5c3e80d, 2017-08-06"
   sodipodi:docname="favicon.svg"
   inkscape:export-filename="/Users/teles/dev/blog-nuxt/static/favicon.ico.png"
   inkscape:export-xdpi="139"
   inkscape:export-ydpi="139">
  <defs
     id="defs2" />
  <sodipodi:namedview
     id="base"
     pagecolor="#ffffff"
     bordercolor="#666666"
     borderopacity="1.0"
     inkscape:pageopacity="0.0"
     inkscape:pageshadow="2"
     inkscape:zoom="3.7988166"
     inkscape:cx="52.73676"
     inkscape:cy="64.5"
     inkscape:document-units="mm"
     inkscape:current-layer="g23"
     showgrid="false"
     showguides="true"
     inkscape:guide-bbox="true"
     inkscape:window-width="1440"
     inkscape:window-height="855"
     inkscape:window-x="0"
     inkscape:window-y="1"
     inkscape:window-maximized="1"
     fit-margin-top="0"
     fit-margin-left="0"
     fit-margin-right="0"
     fit-margin-bottom="0"
     inkscape:showpageshadow="false"
     showborder="false" />
  <metadata
     id="metadata5">
    <rdf:RDF>
      <cc:Work
         rdf:about="">
        <dc:format>image/svg+xml</dc:format>
        <dc:type
           rdf:resource="http://purl.org/dc/dcmitype/StillImage" />
        <dc:title />
      </cc:Work>
    </rdf:RDF>
  </metadata>
  <g
     inkscape:label="Layer 1"
     inkscape:groupmode="layer"
     id="layer1"
     transform="translate(-5.1126524,-6.4662101)">
    <g
       id="g23"
       transform="matrix(0.21333333,0,0,0.24273694,4.0219528,14.879625)">
      <rect
         style="opacity:1;fill:#16161d;fill-opacity:1;stroke:none;stroke-width:2.06344604;stroke-miterlimit:4;stroke-dasharray:none"
         id="rect834"
         width="150"
         height="131.82996"
         x="5.1126518"
         y="-112.18074" />
      <g
         id="g27"
         transform="translate(2.4008289,-3.8146973e-5)">
        <rect
           style="opacity:1;fill:#ffffff;fill-opacity:1;stroke:none;stroke-width:1.24336278;stroke-miterlimit:4;stroke-dasharray:none"
           id="rect836"
           width="71.130783"
           height="100.93857"
           x="17.341743"
           y="-96.735008" />
        <path
           d="M 38.86962,-38.082826 H 23.890076 q -0.09852,6.504279 2.365192,11.234663 2.463739,4.730384 6.602825,7.785421 4.237633,3.055037 9.657862,4.434735 5.518785,1.478245 11.333218,1.478245 7.194123,0 12.614352,-1.675347 5.518785,-1.675338 9.16512,-4.631829 3.744891,-3.055046 5.617331,-7.194132 1.87245,-4.139086 1.87245,-8.968017 0,-5.912981 -2.562294,-9.657871 -2.463739,-3.843437 -5.912981,-6.110074 -3.449241,-2.266645 -6.99703,-3.252139 -3.449232,-1.084049 -5.420229,-1.478245 -6.602825,-1.675348 -10.741911,-2.759397 -4.04054,-1.08404 -6.405732,-2.16809 -2.266645,-1.084049 -3.055036,-2.365192 -0.788429,-1.281143 -0.788429,-3.350686 0,-2.266645 0.985494,-3.74489 0.985503,-1.478246 2.463748,-2.463739 1.576791,-0.985503 3.449232,-1.379699 1.87245,-0.394167 3.744891,-0.394167 2.857943,0 5.223136,0.492779 2.463738,0.492779 4.336179,1.675348 1.87245,1.182596 2.95649,3.252139 1.182596,2.069543 1.379699,5.223136 h 14.979553 q 0,-6.110083 -2.365192,-10.347716 -2.266646,-4.336189 -6.208629,-7.095577 -3.941994,-2.759397 -9.066573,-3.941993 -5.026034,-1.281142 -10.544819,-1.281142 -4.730384,0 -9.460768,1.281142 -4.730384,1.281152 -8.475266,3.941993 -3.744891,2.660842 -6.110083,6.701372 -2.266636,3.941993 -2.266636,9.362222 0,4.828931 1.773894,8.278173 1.872441,3.350685 4.828931,5.617331 2.95649,2.266646 6.701372,3.744891 3.74489,1.379689 7.686874,2.365192 3.843437,1.08404 7.588328,1.970987 3.744891,0.886947 6.701381,2.069543 2.95649,1.182596 4.730384,2.95649 1.872441,1.773895 1.872441,4.631838 0,2.660841 -1.379699,4.434735 -1.379689,1.675348 -3.449232,2.660842 -2.069543,0.985493 -4.434735,1.379698 -2.365192,0.295649 -4.434736,0.295649 -3.055046,0 -5.91298,-0.689817 -2.857944,-0.788428 -5.026033,-2.266636 -2.069543,-1.576801 -3.350695,-4.04054 -1.281143,-2.463738 -1.281143,-6.011526 z"
           style="font-style:normal;font-variant:normal;font-weight:normal;font-stretch:normal;font-size:medium;line-height:1.25;font-family:'Helvetica Neue';-inkscape-font-specification:'Helvetica Neue';letter-spacing:0px;word-spacing:0px;fill:#16161d;fill-opacity:1;stroke:none;stroke-width:2.46374178"
           id="path52"
           inkscape:connector-curvature="0" />
      </g>
      <path
         inkscape:connector-curvature="0"
         id="path54"
         style="font-style:normal;font-variant:normal;font-weight:500;font-stretch:normal;font-size:medium;line-height:1.25;font-family:'Helvetica Neue';-inkscape-font-specification:'Helvetica Neue Medium';letter-spacing:0px;word-spacing:0px;fill:#ffffff;fill-opacity:1;stroke:none;stroke-width:2.46374178"
         d="m 133.85972,-44.68566 q -0.19713,-2.660841 -1.18259,-5.12458 -0.88695,-2.463739 -2.5623,-4.237633 -1.57679,-1.87245 -3.94198,-2.95649 -2.26665,-1.182596 -5.12459,-1.182596 -2.95649,0 -5.42023,1.08404 -2.36519,0.985503 -4.13909,2.857944 -1.67534,1.773894 -2.75938,4.237632 -0.98551,2.463749 -1.08405,5.321683 z m -26.21421,7.391225 q 0,2.95649 0.78842,5.715888 0.88695,2.759387 2.56229,4.82893 1.67535,2.069544 4.23764,3.350686 2.56229,1.182596 6.11008,1.182596 4.92748,0 7.88397,-2.069543 3.05504,-2.16809 4.53328,-6.405722 h 10.64337 q -0.88695,4.139086 -3.05504,7.391225 -2.16809,3.252139 -5.22313,5.518776 -3.05504,2.168099 -6.89848,3.252139 -3.74489,1.182596 -7.88397,1.182596 -6.01153,0 -10.64337,-1.970987 -4.63183,-1.970997 -7.88397,-5.518785 -3.153589,-3.547788 -4.828939,-8.475275 -1.576789,-4.927478 -1.576789,-10.840458 0,-5.420238 1.675349,-10.249169 1.77389,-4.927487 4.927479,-8.573822 3.25214,-3.74489 7.78543,-5.91298 4.53328,-2.16809 10.24916,-2.16809 6.01153,0 10.74192,2.562286 4.82893,2.463748 7.98252,6.602834 3.15358,4.139086 4.53328,9.559315 1.47825,5.321682 0.78843,11.03756 z" />
    </g>
  </g>
</svg>
