<svg xmlns="http://www.w3.org/2000/svg" viewBox="0 0 84.1083 13.183"><defs/><path fill="#16161d" d="M0 0h84.1083v13.183H0z"/><path fill="#fff" d="M1.2917 1.1715h7.6388v10.84H1.2917z"/><g aria-label="S e a moda pega" style="line-height:1.25;-inkscape-font-specification:'Helvetica Neue'" stroke-width=".2646" font-family="Helvetica Neue" font-size="10.5833" font-weight="400" letter-spacing="0" word-spacing="0"><path fill="#16161d" d="M3.6036 7.4703H1.9949q-.0106.6985.254 1.2065.2646.508.709.836.4552.3281 1.0372.4763.5927.1588 1.2171.1588.7726 0 1.3547-.18.5927-.1799.9842-.4974.4022-.328.6033-.7726.201-.4445.201-.963 0-.635-.275-1.0372-.2647-.4128-.635-.6562-.3705-.2434-.7515-.3492-.3704-.1164-.582-.1588-.7092-.1799-1.1537-.2963-.4339-.1164-.6879-.2328-.2434-.1165-.328-.254-.0847-.1376-.0847-.3599 0-.2434.1058-.4021.1058-.1588.2646-.2646.1693-.1059.3704-.1482.201-.0423.4022-.0423.3069 0 .5609.0529.2646.053.4656.18.2011.127.3175.3492.127.2222.1482.5609h1.6087q0-.6562-.254-1.1113-.2434-.4656-.6668-.762-.4233-.2963-.9736-.4233-.5398-.1376-1.1325-.1376-.508 0-1.016.1376t-.9101.4233q-.4022.2858-.6562.7197-.2434.4233-.2434 1.0054 0 .5186.1905.889.201.3598.5186.6033.3175.2434.7196.4021.4022.1482.8255.254.4128.1164.815.2117.4021.0952.7196.2222t.508.3175q.2011.1905.2011.4975 0 .2857-.1482.4762-.1481.18-.3704.2858-.2222.1058-.4762.1481-.254.0318-.4763.0318-.328 0-.635-.0741-.3069-.0847-.5397-.2434-.2223-.1693-.3599-.434-.1375-.2645-.1375-.6455z"/><path d="M13.7783 6.7612q-.0211-.2858-.127-.5503-.0952-.2646-.2751-.4551-.1694-.2011-.4234-.3175-.2434-.127-.5503-.127-.3175 0-.582.1164-.254.1058-.4446.307-.1799.1904-.2963.455-.1058.2646-.1164.5715zm-2.8151.7937q0 .3175.0846.6139.0953.2963.2752.5186.18.2222.455.3598.2753.127.6563.127.5291 0 .8466-.2223.3281-.2328.4869-.6879h1.143q-.0953.4445-.3281.7938-.2329.3492-.561.5926-.328.2329-.7408.3493-.4021.127-.8466.127-.6456 0-1.143-.2117-.4975-.2116-.8467-.5926-.3387-.381-.5186-.9102-.1693-.5292-.1693-1.1642 0-.582.1799-1.1006.1905-.5292.5292-.9208.3492-.4022.836-.635.4869-.2328 1.1007-.2328.6456 0 1.1536.2751.5186.2646.8572.7091.3387.4445.4869 1.0266.1587.5715.0846 1.1853zM23.4302 8.7614q0 .2223.0529.3175.0635.0953.2328.0953h.127q.0741 0 .1694-.0212v.8361q-.0635.0212-.1694.0423-.0952.0318-.201.053-.1059.0211-.2117.0317-.1059.0106-.18.0106-.3704 0-.6138-.1482-.2434-.1481-.3175-.5186-.3598.3493-.889.508-.5186.1588-1.0054.1588-.3704 0-.709-.1058-.3387-.0953-.6033-.2858-.254-.201-.4128-.4974-.1481-.307-.1481-.7091 0-.508.1799-.8255.1905-.3175.4868-.4974.307-.18.6773-.254.381-.0847.762-.127.3281-.0635.6245-.0847.2963-.0317.5185-.0952.2329-.0635.3599-.1905.1376-.1376.1376-.4022 0-.2328-.1165-.381-.1058-.1482-.2751-.2223-.1588-.0846-.3599-.1058-.201-.0317-.381-.0317-.508 0-.836.2116-.3281.2117-.3705.6562h-1.2065q.0318-.5292.254-.8784.2223-.3493.561-.561.3492-.2116.7831-.2963.434-.0846.889-.0846.4022 0 .7938.0846.3916.0847.6985.2752.3175.1905.508.4974.1905.2963.1905.7303zm-1.2065-1.524q-.2752.18-.6774.2223-.4021.0317-.8043.1058-.1905.0318-.3704.0953-.18.0529-.3175.1587-.1376.0953-.2223.2646-.074.1588-.074.3916 0 .201.1164.3387.1164.1375.2751.2222.1694.074.3599.1058.201.0318.3598.0318.201 0 .434-.053.2328-.0528.4338-.1798.2117-.127.3493-.3175.1376-.2011.1376-.4869zM27.674 4.507h1.143v.762h.0317q.1376-.2011.2963-.3705.1588-.1693.3493-.2857.201-.1164.455-.18.254-.074.5821-.074.4974 0 .9208.2222.4339.2223.6138.688.307-.4234.709-.6668.4023-.2434 1.0055-.2434.8678 0 1.344.4233.487.4233.487 1.4182v3.7782h-1.2066V6.7824q0-.3281-.0211-.5927-.0212-.2752-.127-.4657-.0953-.201-.2964-.3069-.201-.1058-.5503-.1058-.6138 0-.889.381t-.2752 1.0795v3.2067h-1.2065V6.465q0-.5715-.2116-.8573-.2011-.2963-.7515-.2963-.2328 0-.455.0952-.2117.0953-.381.2752-.1588.18-.2646.4445-.0953.2646-.0953.6032v3.2491H27.674zM39.3806 10.1267q-.6562 0-1.1748-.2117-.508-.2222-.8678-.6032-.3493-.381-.5398-.9102-.1799-.5292-.1799-1.1642 0-.6244.18-1.1535.1904-.5292.5397-.9102.3598-.381.8678-.5927.5186-.2222 1.1748-.2222.6561 0 1.1641.2222.5186.2117.8679.5927.3598.381.5397.9102.1905.5291.1905 1.1535 0 .635-.1905 1.1642-.1799.5292-.5397.9102-.3493.381-.8679.6032-.508.2117-1.1641.2117zm0-.9525q.4021 0 .6985-.1693.2963-.1694.4868-.4445.1905-.2752.2752-.6139.0952-.3492.0952-.709 0-.3493-.0952-.6986-.0847-.3492-.2752-.6138-.1905-.2752-.4868-.4445-.2964-.1693-.6985-.1693-.4022 0-.6985.1693-.2964.1693-.4869.4445-.1905.2646-.2857.6138-.0847.3493-.0847.6985 0 .3599.0847.7091.0952.3387.2857.6139.1905.2751.4869.4445.2963.1693.6985.1693zM48.3103 9.9785h-1.143v-.7408h-.0212q-.2434.4762-.709.688-.4658.201-.9843.201-.6456 0-1.1325-.2223-.4762-.2328-.7937-.6244-.3175-.3916-.4763-.9207-.1587-.5398-.1587-1.1536 0-.7408.201-1.2806.2012-.5397.5292-.889.3387-.3492.762-.508.434-.1693.8785-.1693.254 0 .5185.0529.2646.0423.508.1482.2435.1058.4445.2751.2117.1588.3493.381h.0212V2.422h1.2065zM44.098 7.301q0 .3493.0847.688.0952.3386.2751.6032.1905.2646.4763.4233.2857.1588.6773.1588.4022 0 .688-.1693.2963-.1694.4762-.4445.1905-.2752.2751-.6139.0953-.3492.0953-.709 0-.9102-.4128-1.4182-.4021-.508-1.1006-.508-.4234 0-.7197.1799-.2857.1693-.4762.455-.18.2752-.2646.635-.0741.3493-.0741.7197zM54.2087 8.7614q0 .2223.0529.3175.0635.0953.2328.0953h.127q.074 0 .1693-.0212v.8361q-.0635.0212-.1693.0423-.0952.0318-.201.053-.106.0211-.2117.0317-.1059.0106-.18.0106-.3704 0-.6138-.1482-.2434-.1481-.3175-.5186-.3598.3493-.889.508-.5186.1588-1.0054.1588-.3704 0-.709-.1058-.3388-.0953-.6033-.2858-.254-.201-.4128-.4974-.1482-.307-.1482-.7091 0-.508.18-.8255.1905-.3175.4868-.4974.307-.18.6773-.254.381-.0847.762-.127.3281-.0635.6244-.0847.2964-.0317.5186-.0952.2329-.0635.3599-.1905.1375-.1376.1375-.4022 0-.2328-.1164-.381-.1058-.1482-.2751-.2223-.1588-.0846-.3599-.1058-.201-.0317-.381-.0317-.508 0-.836.2116-.3281.2117-.3705.6562h-1.2065q.0318-.5292.254-.8784.2223-.3493.561-.561.3492-.2116.7831-.2963.434-.0846.889-.0846.4022 0 .7938.0846.3915.0847.6985.2752.3175.1905.508.4974.1905.2963.1905.7303zm-1.2065-1.524q-.2752.18-.6774.2223-.4021.0317-.8043.1058-.1905.0318-.3704.0953-.18.0529-.3175.1587-.1376.0953-.2223.2646-.074.1588-.074.3916 0 .201.1164.3387.1164.1375.2751.2222.1694.074.3599.1058.201.0318.3598.0318.201 0 .434-.053.2327-.0528.4338-.1798.2117-.127.3493-.3175.1376-.2011.1376-.4869zM58.4842 4.507h1.143v.7408h.0211q.254-.4763.7091-.6774.455-.2116.9843-.2116.6455 0 1.1218.2328.4868.2223.8043.6244.3175.3916.4763.9208.1587.5291.1587 1.1324 0 .5503-.1481 1.069-.1376.5185-.434.9207-.2857.3915-.7302.635-.4445.2328-1.0478.2328-.2645 0-.5291-.053-.2646-.0423-.508-.1481t-.4551-.2646q-.201-.1693-.3387-.3916h-.0211V12h-1.2065zm4.2121 2.741q0-.3704-.0952-.7196-.0953-.3493-.2858-.6139-.1905-.2751-.4762-.4339-.2858-.1693-.6562-.1693-.762 0-1.1536.5291-.381.5292-.381 1.4076 0 .4128.0953.7726.1058.3493.3069.6033.201.254.4762.4021.2858.1482.6562.1482.4128 0 .6985-.1693.2858-.1694.4657-.434.1905-.2751.2646-.6138.0846-.3492.0846-.709zM68.6794 6.7612q-.0212-.2858-.127-.5503-.0953-.2646-.2752-.4551-.1693-.2011-.4233-.3175-.2434-.127-.5504-.127-.3175 0-.582.1164-.254.1058-.4445.307-.18.1904-.2964.455-.1058.2646-.1164.5715zm-2.8152.7937q0 .3175.0847.6139.0952.2963.2751.5186.18.2222.4551.3598.2752.127.6562.127.5292 0 .8467-.2223.328-.2328.4868-.6879h1.143q-.0953.4445-.328.7938-.233.3492-.561.5926-.328.2329-.7408.3493-.4022.127-.8467.127-.6456 0-1.143-.2117-.4974-.2116-.8467-.5926-.3386-.381-.5186-.9102-.1693-.5292-.1693-1.1642 0-.582.18-1.1006.1904-.5292.5291-.9208.3492-.4022.836-.635.487-.2328 1.1007-.2328.6456 0 1.1536.2751.5186.2646.8573.7091.3386.4445.4868 1.0266.1588.5715.0847 1.1853zM75.8722 9.6928q0 1.2382-.6985 1.8415-.6879.6138-1.9896.6138-.4128 0-.8361-.0847-.4128-.0846-.762-.2857-.3387-.2011-.5715-.5292-.2328-.328-.2752-.8043h1.2065q.053.254.18.4127.127.1588.2963.2435.1799.0952.3916.1164.2116.0317.4445.0317.7302 0 1.0689-.3598.3386-.3598.3386-1.0372v-.836h-.0211q-.254.455-.6985.709-.434.254-.942.254-.6561 0-1.1218-.2222-.455-.2329-.762-.6244-.2963-.4022-.4339-.9208t-.1376-1.1112q0-.5504.1694-1.0478.1693-.4974.4868-.8678.3175-.381.7726-.6033.4656-.2222 1.0477-.2222.5186 0 .9525.2222.434.2117.6668.6774h.0211v-.7515h1.2065zm-2.6775-.6668q.4021 0 .6773-.1587.2857-.1694.455-.434.18-.2751.254-.6138.0847-.3492.0847-.6985 0-.3492-.0846-.6773-.0847-.328-.2646-.582-.1693-.254-.455-.4023-.2753-.1481-.6668-.1481-.4022 0-.6774.1693-.2751.1693-.4445.4445-.1693.2646-.2434.6138-.074.3387-.074.6774 0 .3386.0846.6667.0847.3175.254.5715.18.254.4445.4128.2752.1587.6562.1587zM81.6798 8.7614q0 .2223.053.3175.0634.0953.2328.0953h.127q.074 0 .1693-.0212v.8361q-.0635.0212-.1693.0423-.0953.0318-.2011.053-.1058.0211-.2117.0317-.1058.0106-.1799.0106-.3704 0-.6138-.1482-.2434-.1481-.3175-.5186-.3599.3493-.889.508-.5186.1588-1.0054.1588-.3705 0-.7091-.1058-.3387-.0953-.6033-.2858-.254-.201-.4127-.4974-.1482-.307-.1482-.7091 0-.508.18-.8255.1904-.3175.4868-.4974.3069-.18.6773-.254.381-.0847.762-.127.328-.0635.6244-.0847.2963-.0317.5186-.0952.2328-.0635.3598-.1905.1376-.1376.1376-.4022 0-.2328-.1164-.381-.1058-.1482-.2752-.2223-.1587-.0846-.3598-.1058-.201-.0317-.381-.0317-.508 0-.836.2116-.3282.2117-.3705.6562H77.002q.0318-.5292.254-.8784.2222-.3493.561-.561.3492-.2116.783-.2963.434-.0846.889-.0846.4022 0 .7938.0846.3916.0847.6985.2752.3175.1905.508.4974.1905.2963.1905.7303zm-1.2065-1.524q-.2751.18-.6773.2223-.4022.0317-.8043.1058-.1905.0318-.3704.0953-.18.0529-.3175.1587-.1376.0953-.2223.2646-.074.1588-.074.3916 0 .201.1163.3387.1164.1375.2752.2222.1693.074.3598.1058.2011.0318.3599.0318.201 0 .4339-.053.2328-.0528.4339-.1798.2117-.127.3492-.3175.1376-.2011.1376-.4869z" style="-inkscape-font-specification:'Helvetica Neue Medium'" fill="#fff" font-weight="500"/></g></svg>
